<svg width="903" height="536" viewBox="0 0 903 536" fill="none" xmlns="http://www.w3.org/2000/svg">
<path d="M902.771 80C902.771 99.2 898.237 116 889.17 130.4C880.104 144.267 868.637 154.933 854.77 162.4C841.437 169.333 828.37 172.8 815.57 172.8C803.304 172.8 791.57 169.867 780.37 164C769.704 157.6 762.77 150.4 759.57 142.4L565.17 467.2C550.237 492.267 536.637 510.133 524.37 520.8C512.637 530.933 499.037 536 483.57 536C447.837 536 427.57 513.067 422.77 467.2L397.17 232L235.57 467.2C216.904 494.4 201.704 512.8 189.97 522.4C178.77 531.467 165.704 536 150.77 536C118.237 536 98.5037 510.4 91.5704 459.2L40.3704 97.6C38.7704 86.9333 35.5704 78.4 30.7704 72C26.5037 65.6 20.9037 59.4667 13.9704 53.6C9.17037 49.3333 5.7037 45.8666 3.57037 43.2C1.43704 40 0.37037 36.5333 0.37037 32.8C-2.29629 13.0667 9.43703 3.19998 35.5704 3.19998H234.77C247.037 3.19998 256.104 5.86665 261.97 11.2C268.37 16 271.304 22.6666 270.77 31.2C270.77 35.4666 269.437 39.7333 266.77 44C264.637 47.7333 262.237 51.2 259.57 54.4C253.704 60.8 249.437 66.9333 246.77 72.8C244.104 78.6666 243.304 86.4 244.37 96L265.17 288.8L385.17 116.8L382.77 97.6C381.704 87.4666 379.037 79.2 374.77 72.8C370.504 66.4 364.637 60.2666 357.17 54.4C351.837 49.6 348.104 45.8666 345.97 43.2C343.837 40 342.77 36.5333 342.77 32.8C340.104 13.0667 351.837 3.19998 377.97 3.19998H577.97C590.237 3.19998 599.57 5.86665 605.97 11.2C612.37 16 615.304 22.6666 614.77 31.2C614.77 38.1333 611.037 45.8666 603.57 54.4C598.237 60.8 594.237 66.9333 591.57 72.8C588.904 78.6666 587.837 86.4 588.37 96L597.97 270.4L705.97 81.6C723.57 51.2 740.637 30.1333 757.17 18.4C773.704 6.13333 795.304 0 821.97 0C845.97 0 865.437 7.2 880.37 21.6C895.304 36 902.771 55.4666 902.771 80Z" fill="black"/>
<g clip-path="url(#clip0_2_17)">
<path d="M846.878 59.2474C837.804 44.7033 828.604 33.0003 828.512 32.884C828.09 32.3493 827.446 32.0376 826.766 32.0381C826.085 32.0385 825.442 32.3511 825.021 32.8864C824.929 33.003 815.745 44.7184 806.691 59.2751C794.4 79.0365 788.171 94.4069 788.178 104.959C788.193 126.263 805.537 143.584 826.842 143.57C848.147 143.555 865.467 126.211 865.452 104.906C865.445 94.3539 859.196 78.9921 846.878 59.2474ZM826.839 139.126C807.984 139.139 792.635 123.81 792.622 104.956C792.608 84.5945 819.574 47.4594 826.77 37.914C833.979 47.4476 860.995 84.5395 861.009 104.909C861.022 123.764 845.693 139.113 826.839 139.126Z" fill="white"/>
<path d="M831.016 50.9825C830.588 50.3696 830.169 49.773 829.76 49.1949C829.052 48.1931 827.666 47.9551 826.663 48.6633C825.662 49.3718 825.424 50.7582 826.132 51.7602C826.536 52.3313 826.95 52.9203 827.372 53.5256C827.804 54.1453 828.495 54.4765 829.198 54.4761C829.636 54.4758 830.079 54.3458 830.466 54.0759C831.472 53.3738 831.718 51.9888 831.016 50.9825Z" fill="white"/>
<path d="M850.048 82.3584C846.439 75.0819 841.719 67.0076 836.021 58.3598C835.346 57.3355 833.968 57.052 832.943 57.7271C831.919 58.4022 831.636 59.7802 832.311 60.8049C837.91 69.3021 842.538 77.2181 846.068 84.333C846.456 85.1152 847.243 85.5684 848.062 85.5678C848.393 85.5676 848.729 85.4929 849.045 85.3358C850.145 84.7907 850.594 83.4577 850.048 82.3584Z" fill="white"/>
</g>
<defs>
<clipPath id="clip0_2_17">
<rect width="111.532" height="111.532" fill="white" transform="translate(771 32.0762) rotate(-0.0391506)"/>
</clipPath>
</defs>
</svg>
